# xmcd
#
# Track frame offsets: 
#        150
#        27567
#        43245
#        73002
#
# Disc length: 1242 seconds
#
# Revision: 3
# Processed by: cddbd v1.5.2PL0 Copyright (c) Steve Scherf et al.
# Submitted via: ExactAudioCopy v1.0b3
#
DISCID=3704d804
DTITLE=Captain Jack - Captain Jack (Remix)
DYEAR=1900
DGENRE=
TTITLE0=Captain Jack (Dancefloor Syndroma Success Mix)
TTITLE1=Captain Jack (Dancefloor Syndroma Radio Remix)
TTITLE2=Captain Jack (Dancefloor Syndroma House Mix)
TTITLE3=Captain Jack (Captain Jack Is In Da House Mix)
EXTD=
EXTT0=
EXTT1=
EXTT2=
EXTT3=
PLAYORDER=
